                                   1ST ON NET

        VERY VERY THANKS FOR ORG DVD 448Kbps HINDI AUDIO(HIREN RAJPUT)


  Rise of the Guardians (2012)1920x1080p BDRip In[Hindi(448kbps)-Eng]AC3-DGrea8


Summary:-

When an evil spirit known as Pitch lays down the gauntlet to take over the world, the immortal Guardians must join forces for the first time to protect the hopes, beliefs, and imaginations of children all over the world.


Cast:-


Chris Pine	 ...	Jack Frost (voice)
Alec Baldwin	 ...	North (voice)
Jude Law	 ...	Pitch (voice)
Isla Fisher	 ...	Tooth (voice)
Hugh Jackman	 ...	Bunny (voice)
Dakota Goyo	 ...	Jamie Bennett (voice)
Khamani Griffin	 ...	Caleb (voice)
Kamil McFadden	 ...	Claude (voice)
Georgie Grieve	 ...	Sophie Bennett (voice)
Emily Nordwind	 ...	Jamie's Mom / Jack's Mother (voice)
Jacob Bertrand	 ...	Monty (voice)
Olivia Mattingly ...	Pippa / Jack's Sister (voice)
Dominique Grund	 ...	Cupcake (voice)
Ryan Crego	 ...	Burgess Dog Walker (voice)
April Lawrence	 ...	Burgess Pedestrian #1 (voice)



Video & Audio Info.:-

Director:Peter Ramsey
Writers: David Lindsay-Abaire (screenplay), William Joyce (book)
Stars:Chris Pine, Alec Baldwin, Isla Fisher
Release Date:21 November 2012 (USA)
Genres: Animation | Adventure | Family | Fantasy

Box Office
Budget: $145,000,000 (estimated)
Opening Weekend: $23,773,465 (USA) (21 November 2012)
Gross: $103,400,692 (USA) (5 April 2013)


Video
ID : 1
Format : AVC
Format/Info : Advanced Video Codec
Format profile : High@L4.0
Format settings, CABAC : Yes
Format settings, ReFrames : 3 frames
Format settings, GOP : M=4, N=16
Muxing mode : Header stripping
Codec ID : V_MPEG4/ISO/AVC
Duration : 1h 33mn
Bit rate : 2 112 Kbps
Width : 1 920 pixels
Height : 1 080 pixels
Display aspect ratio : 16:9
Frame rate : 25.000 fps
Original frame rate : 23.976 fps
Color space : YUV
Chroma subsampling : 4:2:0
Bit depth : 8 bits
Scan type : Progressive
Bits/(Pixel*Frame) : 0.041
Stream size : 1.40 GiB (75%)

Audio #1
ID : 2
Format : AC-3
Format/Info : Audio Coding 3
Mode extension : CM (complete main)
Muxing mode : Header stripping
Codec ID : A_AC3
Duration : 1h 33mn
Bit rate mode : Constant
Bit rate : 224 Kbps
Channel(s) : 2 channels
Channel positions : Front: L R
Sampling rate : 48.0 KHz
Bit depth : 16 bits
Compression mode : Lossy
Stream size : 149 MiB (8%)
Language : English

Audio #2
ID : 3
Format : AC-3
Format/Info : Audio Coding 3
Mode extension : CM (complete main)
Muxing mode : Header stripping
Codec ID : A_AC3
Duration : 1h 33mn
Bit rate mode : Constant
Bit rate : 448 Kbps
Channel(s) : 6 channels
Channel positions : Front: L C R, Side: L R, LFE
Sampling rate : 48.0 KHz
Bit depth : 16 bits
Compression mode : Lossy
Delay relative to video : 4s 500ms
Stream size : 299 MiB (16%)
Language : Hindi


Subtitle Languages : English



Screen Shoots:-




Note:-- Check The Torrent


Check The Sample Video In This Torrent	